<svg xmlns="http://www.w3.org/2000/svg" viewBox="0 0 196.47 168.55"><defs><style>.cls-1,.cls-2{fill:#fff;}.cls-1{stroke:#1d1d1b;stroke-miterlimit:10;stroke-width:9px;}</style></defs><g id="Capa_2" data-name="Capa 2"><g id="Capa_3" data-name="Capa 3"><path class="cls-1" d="M151.41,8.16c23.07,5.06,36.66,21.06,38.9,44.18a317.08,317.08,0,0,1,.42,60.13c-2.84,29.64-18.95,47.16-48.38,49.7a511.06,511.06,0,0,1-88.43-.08c-28.61-2.51-44.65-19.35-47.76-47.42A285.52,285.52,0,0,1,6,54.56C8.92,26,25.23,10.49,54.26,5.78,68.62,3.45,133.92,4.33,151.41,8.16ZM89.05,69c-17.24-33.77-54-24.63-65.48-5.38-2.79,4.66-6.94,8.52-9.48,11.57,2.57,4.1,5.61,7.8,7.44,12,6.46,14.88,18,22.52,34.37,22.07,16.14-.44,27.2-9.09,33-24.06,1.68-4.37,6.55-7.52,10-11.22,3.29,3.7,8,6.88,9.61,11.2,5.38,14.65,17,23.65,33.09,24.1,16.72.48,28.37-7.21,34.26-21.87,1.82-4.52,5-8.48,7.54-12.59-10.85-9-16.41-26.63-35.33-28.1-19.09-1.48-31.94,7-39.86,22.25Z"/><path d="M89.05,69h19.09c7.92-15.28,20.77-23.73,39.86-22.25,18.92,1.47,24.48,19.05,35.33,28.1-2.51,4.11-5.72,8.07-7.54,12.59-5.89,14.66-17.54,22.35-34.26,21.87-16.14-.45-27.71-9.45-33.09-24.1-1.59-4.32-6.32-7.5-9.61-11.2-3.4,3.7-8.27,6.85-10,11.22-5.78,15-16.84,23.62-33,24.06-16.33.45-27.91-7.19-34.37-22.07-1.83-4.23-4.87-7.93-7.44-12,2.54-3,6.69-6.91,9.48-11.57C35.09,44.41,71.81,35.27,89.05,69ZM54,52.41c-15.6,0-28.3,11.49-28.28,25.64,0,14.52,13.11,26.35,29.2,26.4,15.76,0,29.4-12.26,29.37-26.5C84.23,64.59,69.82,52.44,54,52.41Zm89.29,52c15.79-.19,29.16-12.6,28.91-26.82-.24-13.52-13.58-25.12-29-25.26s-30,12.75-29.78,26.14C113.63,92.65,127.36,104.57,143.27,104.38Z"/><path class="cls-2" d="M54,52.41c15.84,0,30.25,12.18,30.29,25.54,0,14.24-13.61,26.55-29.37,26.5-16.09,0-29.18-11.88-29.2-26.4C25.68,63.9,38.38,52.38,54,52.41Zm-.6,40.72c10.07-1.22,15.51-7.28,15-16.37S61.74,61.59,52,62.4c-8.78.72-14,6.17-13.81,15.45C38.46,87.76,44.37,92.26,53.38,93.13Z"/><path class="cls-2" d="M143.27,104.38c-15.91.19-29.64-11.73-29.9-25.94-.24-13.39,14.43-26.27,29.78-26.14s28.79,11.74,29,25.26C172.43,91.78,159.06,104.19,143.27,104.38Zm.11-11.1c9.92-.86,15.61-6.69,15.51-15.74s-6.26-15.35-15.71-15.19-15.12,5.8-15,15.61S134.25,92.4,143.38,93.28Z"/><path d="M53.38,93.13c-9-.87-14.92-5.37-15.16-15.28C38,68.57,43.25,63.12,52,62.4c9.71-.81,15.85,5.24,16.35,14.36S63.45,91.91,53.38,93.13Z"/><path d="M143.38,93.28c-9.13-.88-15.07-5.48-15.19-15.32s5.64-15.45,15-15.61,15.61,6,15.71,15.19S153.3,92.42,143.38,93.28Z"/></g></g></svg>