<svg width="253" height="57" viewBox="0 0 253 57" fill="none" xmlns="http://www.w3.org/2000/svg">
<path d="M12.7266 18.0703C12.7266 17.6016 12.5 17.3672 12.0469 17.3672H9.35156C8.66406 17.3672 8.13281 17.5781 7.75781 18C7.13281 18.7031 6.82031 19.4219 6.82031 20.1562V21.4922C6.82031 22.7109 6.25 23.5547 5.10938 24.0234C4.76562 24.1641 4.39844 24.2344 4.00781 24.2344C3.63281 24.2344 3.27344 24.1641 2.92969 24.0234C2.60156 23.8828 2.3125 23.6875 2.0625 23.4375C1.53125 22.9062 1.26562 22.2578 1.26562 21.4922V20.0859C1.26562 18.1797 1.94531 16.5469 3.30469 15.1875C4.66406 13.8281 6.29688 13.1484 8.20312 13.1484H21.9375C22.5312 13.1484 23.0234 13.3594 23.4141 13.7812C23.8203 14.1875 24.0234 14.6094 24.0234 15.0469C24.0234 15.4844 23.9688 15.8359 23.8594 16.1016C23.75 16.3516 23.6016 16.5703 23.4141 16.7578C23.0078 17.1641 22.5156 17.3672 21.9375 17.3672H18.6328C17.9297 17.3672 17.3906 17.5625 17.0156 17.9531C16.375 18.6406 16.0547 19.3672 16.0547 20.1328V28.3359H20.5547C21.1328 28.3359 21.5781 28.4844 21.8906 28.7812C22.4219 29.2812 22.6875 29.7578 22.6875 30.2109C22.6875 30.6484 22.6328 31 22.5234 31.2656C22.4141 31.5156 22.2656 31.7344 22.0781 31.9219C21.6562 32.3438 21.1484 32.5547 20.5547 32.5547H16.0547V38.0625C16.0547 39.9844 15.3828 41.6172 14.0391 42.9609C12.6797 44.3203 11.0469 45 9.14062 45H6.42188C5.82812 45 5.32812 44.7969 4.92188 44.3906C4.51562 43.9844 4.3125 43.4922 4.3125 42.9141C4.3125 42.3203 4.51562 41.8125 4.92188 41.3906C5.32812 40.9688 5.82812 40.7578 6.42188 40.7578H7.75781C8.52344 40.7578 9.10938 40.5625 9.51562 40.1719C10.1875 39.5312 10.5234 38.8125 10.5234 38.0156V32.5547H9.49219C8.91406 32.5547 8.46875 32.4062 8.15625 32.1094C7.625 31.6094 7.35938 31.1406 7.35938 30.7031C7.35938 30.25 7.41406 29.8984 7.52344 29.6484C7.63281 29.3828 7.78125 29.1562 7.96875 28.9688C8.39062 28.5469 8.89844 28.3359 9.49219 28.3359H10.5234V22.5938C10.5234 21.1094 11.1875 19.7422 12.5156 18.4922C12.6562 18.3672 12.7266 18.2266 12.7266 18.0703ZM39.3984 20.5781C39.8047 20.1875 40.1719 19.9219 40.5 19.7812C40.8438 19.625 41.2031 19.5469 41.5781 19.5469C41.9688 19.5469 42.3281 19.6172 42.6562 19.7578C43 19.8984 43.2969 20.0938 43.5469 20.3438C44.0938 20.8906 44.3672 21.5391 44.3672 22.2891V42.6562C44.3672 43.4219 44.1719 44.0156 43.7812 44.4375C43.1094 45.125 42.4688 45.4688 41.8594 45.4688C41.2656 45.4688 40.8203 45.3984 40.5234 45.2578C40.2266 45.1328 39.9844 44.9844 39.7969 44.8125C39.5 44.5625 39.2891 44.3125 39.1641 44.0625C39.0547 43.7969 38.9531 43.6016 38.8594 43.4766C38.7656 43.3516 38.6172 43.2891 38.4141 43.2891C38.2266 43.2891 38.0703 43.3594 37.9453 43.5C37.8203 43.625 37.6172 43.8281 37.3359 44.1094C36.3984 45.0156 35.3672 45.4688 34.2422 45.4688C33.1328 45.4688 32.2031 45.2891 31.4531 44.9297C30.7031 44.5547 30.0469 44.0469 29.4844 43.4062C28.2969 42.0469 27.7031 40.4219 27.7031 38.5312V22.2891C27.7031 21.1016 28.2656 20.2656 29.3906 19.7812C29.7188 19.625 30.0703 19.5469 30.4453 19.5469C30.8359 19.5469 31.2031 19.6172 31.5469 19.7578C31.8906 19.8984 32.1875 20.0938 32.4375 20.3438C32.9844 20.8906 33.2578 21.5391 33.2578 22.2891V38.4609C33.2578 39.2422 33.4531 39.8281 33.8438 40.2188C34.5312 40.9062 35.25 41.25 36 41.25C37.2344 41.25 38.0938 40.7656 38.5781 39.7969C38.7344 39.4844 38.8125 39.1328 38.8125 38.7422V22.2891C38.8125 21.5234 39.0078 20.9531 39.3984 20.5781ZM56.6484 44.4609C56.2578 44.8359 55.8906 45.0938 55.5469 45.2344C55.2188 45.3906 54.8594 45.4688 54.4688 45.4688C54.0938 45.4688 53.7344 45.3984 53.3906 45.2578C53.0625 45.1172 52.7734 44.9219 52.5234 44.6719C51.9766 44.125 51.7031 43.4766 51.7031 42.7266V22.3594C51.7031 21.5938 51.9062 21 52.3125 20.5781C52.9688 19.8906 53.5938 19.5469 54.1875 19.5469C54.7969 19.5469 55.2422 19.6172 55.5234 19.7578C55.8203 19.8828 56.0703 20.0312 56.2734 20.2031C56.5703 20.4531 56.7734 20.7109 56.8828 20.9766C57.0078 21.2266 57.1172 21.4141 57.2109 21.5391C57.3047 21.6641 57.4453 21.7266 57.6328 21.7266C57.8359 21.7266 58 21.6641 58.125 21.5391C58.25 21.3984 58.4531 21.1875 58.7344 20.9062C59.6719 20 60.6953 19.5469 61.8047 19.5469C62.9297 19.5469 63.8672 19.7344 64.6172 20.1094C65.3672 20.4688 66.0156 20.9688 66.5625 21.6094C67.7656 22.9688 68.3672 24.5938 68.3672 26.4844V42.7266C68.3672 43.9141 67.8125 44.75 66.7031 45.2344C66.3594 45.3906 65.9922 45.4688 65.6016 45.4688C65.2266 45.4688 64.8672 45.3984 64.5234 45.2578C64.1797 45.1172 63.8828 44.9219 63.6328 44.6719C63.0859 44.125 62.8125 43.4766 62.8125 42.7266V26.5547C62.8125 25.7891 62.625 25.2031 62.25 24.7969C61.5781 24.1094 60.8594 23.7656 60.0938 23.7656C58.8438 23.7656 57.9766 24.25 57.4922 25.2188C57.3359 25.5312 57.2578 25.8828 57.2578 26.2734V42.7266C57.2578 43.4922 57.0547 44.0703 56.6484 44.4609ZM88.1484 30.8906C90.9297 32.0156 92.3203 34.0859 92.3203 37.1016V42.7266C92.3203 43.4922 92.125 44.0625 91.7344 44.4375C90.6719 45.4688 89.5781 45.7344 88.4531 45.2344C87.3125 44.75 86.7422 43.9141 86.7422 42.7266V37.1719C86.7422 36.3906 86.5469 35.8047 86.1562 35.4141C85.4688 34.7266 84.75 34.3828 84 34.3828H81.2812V42.7266C81.2812 43.4766 81.0781 44.0469 80.6719 44.4375C80 45.125 79.375 45.4688 78.7969 45.4688C78.2188 45.4688 77.7578 45.3906 77.4141 45.2344C77.0703 45.0938 76.7734 44.9062 76.5234 44.6719C75.9766 44.1406 75.7031 43.4922 75.7031 42.7266V11.7656C75.7031 11 75.9062 10.4062 76.3125 9.98438C76.9688 9.29688 77.7031 8.95312 78.5156 8.95312C79.2969 8.95312 79.875 9.15625 80.25 9.5625C80.9375 10.2656 81.2812 11 81.2812 11.7656V30.1641H82.9688L87.375 21.0703C87.5938 20.5703 87.9375 20.1875 88.4062 19.9219C88.875 19.6406 89.3516 19.5 89.8359 19.5C90.3203 19.5 90.7812 19.6172 91.2188 19.8516C91.6562 20.0703 92 20.4062 92.25 20.8594C92.5156 21.3125 92.6484 21.7891 92.6484 22.2891C92.6484 22.7734 92.5391 23.2109 92.3203 23.6016L88.1484 30.8906ZM169.875 21.6562C170.125 21.3906 170.352 21.1094 170.555 20.8125C170.758 20.5 170.859 20.1406 170.859 19.7344C170.859 19.3125 170.781 18.9375 170.625 18.6094C170.484 18.2656 170.281 17.9688 170.016 17.7188C169.406 17.1719 168.758 16.8984 168.07 16.8984C167.383 16.8984 166.828 17 166.406 17.2031C166 17.4062 165.641 17.6953 165.328 18.0703C164.672 18.8516 164.344 19.9141 164.344 21.2578C164.344 23.0078 164.867 24.5625 165.914 25.9219C166.227 26.3281 166.562 26.6719 166.922 26.9531L172.242 31.2188C174.414 33.0312 175.5 35.1875 175.5 37.6875C175.5 39.75 174.742 41.5 173.227 42.9375C171.758 44.3125 170.047 45 168.094 45H164.789C164.211 45 163.711 44.7969 163.289 44.3906C162.867 43.9844 162.656 43.5625 162.656 43.125C162.656 42.6875 162.711 42.3438 162.82 42.0938C162.945 41.8281 163.109 41.5938 163.312 41.3906C163.734 40.9688 164.227 40.7578 164.789 40.7578H166.758C167.711 40.7578 168.477 40.5156 169.055 40.0312C169.633 39.5312 169.922 38.9453 169.922 38.2734C169.922 37.1641 169.43 36.1641 168.445 35.2734L164.438 31.9922C162.531 30.4453 161.188 28.9922 160.406 27.6328C159.531 26.0859 159.094 24.1016 159.094 21.6797C159.094 18.8516 159.867 16.6406 161.414 15.0469C162.93 13.4688 165.047 12.6797 167.766 12.6797C170.312 12.6797 172.312 13.3203 173.766 14.6016C175.219 15.8672 175.945 17.6094 175.945 19.8281C175.945 21.7031 175.555 23.25 174.773 24.4688C173.977 25.7188 172.938 26.3438 171.656 26.3438C170.891 26.3438 170.305 26.1562 169.898 25.7812C169.227 25.125 168.891 24.4922 168.891 23.8828C168.891 23.2578 168.992 22.7969 169.195 22.5C169.398 22.2031 169.625 21.9219 169.875 21.6562ZM188.953 44.4609C188.562 44.8359 188.195 45.0938 187.852 45.2344C187.523 45.3906 187.164 45.4688 186.773 45.4688C186.398 45.4688 186.039 45.3984 185.695 45.2578C185.352 45.1172 185.055 44.9219 184.805 44.6719C184.258 44.125 183.984 43.4766 183.984 42.7266V11.7188C183.984 10.9531 184.188 10.375 184.594 9.98438C185.266 9.29688 185.891 8.95312 186.469 8.95312C187.062 8.95312 187.523 9.02344 187.852 9.16406C188.195 9.30469 188.492 9.5 188.742 9.75C189.289 10.2969 189.562 10.9531 189.562 11.7188V20.9766C189.562 21.2734 189.641 21.4766 189.797 21.5859C189.969 21.6797 190.133 21.7266 190.289 21.7266C190.445 21.7266 190.594 21.6562 190.734 21.5156L191.109 21.1406C192.172 20.0781 193.398 19.5469 194.789 19.5469C196.477 19.5469 197.875 20.2344 198.984 21.6094C200.094 22.9688 200.648 24.5938 200.648 26.4844V42.7266C200.648 43.9141 200.094 44.75 198.984 45.2344C198.641 45.3906 198.273 45.4688 197.883 45.4688C197.508 45.4688 197.148 45.3984 196.805 45.2578C196.461 45.1172 196.164 44.9219 195.914 44.6719C195.367 44.125 195.094 43.4766 195.094 42.7266V26.5547C195.094 25.7734 194.898 25.1875 194.508 24.7969C193.82 24.1094 193.188 23.7656 192.609 23.7656C192.047 23.7656 191.602 23.8281 191.273 23.9531C190.945 24.0625 190.656 24.2266 190.406 24.4453C189.844 24.9141 189.562 25.5234 189.562 26.2734V42.7266C189.562 43.4922 189.359 44.0703 188.953 44.4609ZM207.984 26.4375C207.984 24.3281 208.703 22.6562 210.141 21.4219C211.641 20.1719 213.703 19.5469 216.328 19.5469C218.922 19.5469 220.969 20.1719 222.469 21.4219C223.922 22.6719 224.648 24.3594 224.648 26.4844V38.6016C224.648 41.8672 223.055 44 219.867 45C218.836 45.3125 217.656 45.4688 216.328 45.4688C215.016 45.4688 213.844 45.3125 212.812 45C211.781 44.6719 210.906 44.2031 210.188 43.5938C208.719 42.375 207.984 40.6875 207.984 38.5312V26.4375ZM219.094 26.5547C219.094 25.7734 218.898 25.1875 218.508 24.7969C217.82 24.1094 217.094 23.7656 216.328 23.7656C215.547 23.7656 214.953 23.9688 214.547 24.375C213.875 25.0469 213.539 25.7734 213.539 26.5547V38.7422C213.539 39.5391 213.805 40.1562 214.336 40.5938C214.867 41.0156 215.523 41.2266 216.305 41.2266C217.102 41.2266 217.766 41.0156 218.297 40.5938C218.828 40.1562 219.094 39.5391 219.094 38.7422V26.5547ZM231.984 22.3594C231.984 21.5781 232.18 20.9844 232.57 20.5781C233.227 19.8906 233.859 19.5469 234.469 19.5469C235.078 19.5469 235.531 19.6172 235.828 19.7578C236.125 19.8828 236.375 20.0312 236.578 20.2031C236.828 20.4062 237.016 20.6484 237.141 20.9297C237.266 21.2109 237.375 21.4141 237.469 21.5391C237.578 21.6641 237.727 21.7266 237.914 21.7266C238.102 21.7266 238.258 21.6641 238.383 21.5391C238.508 21.3984 238.711 21.1875 238.992 20.9062C239.93 20 240.953 19.5469 242.062 19.5469C243.188 19.5469 244.117 19.7344 244.852 20.1094C245.602 20.4688 246.258 20.9688 246.82 21.6094C248.039 22.9688 248.648 24.5938 248.648 26.4844V38.0625C248.648 39.9844 247.969 41.6172 246.609 42.9609C245.219 44.3203 243.578 45 241.688 45H237.539V53.3438C237.539 54.125 237.344 54.7109 236.953 55.1016C236.281 55.7734 235.547 56.1094 234.75 56.1094C233.969 56.1094 233.383 55.9141 232.992 55.5234C232.32 54.8516 231.984 54.125 231.984 53.3438V22.3594ZM243.07 26.2734C243.07 25.5078 242.805 24.8984 242.273 24.4453C241.758 23.9922 241.203 23.7656 240.609 23.7656C240.031 23.7656 239.57 23.8281 239.227 23.9531C238.898 24.0625 238.609 24.2188 238.359 24.4219C237.812 24.8906 237.539 25.4688 237.539 26.1562V40.7578H240.305C241.07 40.7578 241.656 40.5625 242.062 40.1719C242.734 39.5312 243.07 38.8125 243.07 38.0156V26.2734Z" fill="#FFB978"/>
<path d="M100.347 40.4263L100.348 40.4001V40.3739C100.348 34.6106 100.475 31.0088 100.601 28.8057C100.664 27.7047 100.727 26.9524 100.773 26.4536C100.791 26.2611 100.807 26.1069 100.82 25.9814C100.824 25.9435 100.827 25.9082 100.83 25.8753L100.831 25.8698C100.843 25.7504 100.856 25.62 100.856 25.527L100.856 25.5265L100.856 25.5208L100.856 25.5206V25.5205C100.856 25.3312 100.852 21.8443 102.022 18.0774C103.197 14.2954 105.49 10.4199 109.96 9.11603C111.482 8.67229 112.292 8.46431 113.138 8.34565C113.971 8.22873 114.85 8.19621 116.488 8.13563L116.616 8.13086H139.932C141.462 8.21351 143.965 8.72813 146.421 10.0124C148.88 11.2976 151.25 13.3311 152.587 16.4334C153.583 18.7451 154.184 22.2478 154.507 26.1586C154.828 30.0488 154.867 34.2663 154.774 37.9612C154.718 40.2242 154.574 42.5623 154.01 44.6519C153.449 46.733 152.487 48.5068 150.836 49.7121C148.208 51.6307 143.772 52.8211 135.51 52.8211H114.331C111.821 52.7375 108.115 51.9975 105.147 50.0855C102.217 48.1978 100.014 45.1834 100.347 40.4263Z" stroke="#FFB978" stroke-width="1.5"/>
<rect x="138.809" y="29.8413" width="10.1517" height="10.4055" rx="5.07585" fill="#FFB978"/>
<rect x="106.324" y="29.8413" width="10.1517" height="10.4055" rx="5.07585" fill="#FFB978"/>
<path d="M158.715 36.2061C158.773 35.9775 158.823 35.7558 158.859 35.5517C159.139 33.9655 159.401 32.21 158.696 30.7619C158.668 30.7051 158.638 30.6518 158.605 30.6027C158.574 30.5561 158.543 30.5086 158.511 30.4603C157.867 29.4856 156.705 28.9778 155.56 29.2069L155.433 40.2468C156.994 39.343 158.268 37.9538 158.715 36.2061Z" fill="#FFB978" stroke="#FFB978"/>
<path d="M96.4076 36.1599C96.3562 35.9296 96.3131 35.7066 96.2832 35.5014C96.0515 33.9075 95.8428 32.1448 96.5916 30.7188C96.621 30.6628 96.6527 30.6105 96.6869 30.5624C96.7194 30.5168 96.7523 30.4702 96.7856 30.4229C97.4587 29.4682 98.6353 28.9958 99.7733 29.2595L99.5656 40.2982C98.0325 39.3475 96.8012 37.9204 96.4076 36.1599Z" fill="#FFB978" stroke="#FFB978"/>
<path d="M124.086 43.9502L124 44H131.2L130.89 43.8346C128.755 42.6938 126.181 42.7376 124.086 43.9502Z" fill="#FFB978"/>
<path d="M150.415 27.2947L150.141 27.2132C146.694 26.1857 142.994 26.4264 139.71 27.8918C139.429 28.0168 139.1 27.9401 138.905 27.7042L138.708 27.468C138.456 27.1643 138.573 26.7029 138.94 26.5564C142.669 25.0667 146.902 25.3488 150.415 27.2947Z" fill="#FFB978"/>
<path d="M105.384 27.5482L105.657 27.4666C109.104 26.4391 112.804 26.6798 116.089 28.1453C116.369 28.2702 116.698 28.1935 116.894 27.9576L117.09 27.7214C117.342 27.4177 117.225 26.9563 116.858 26.8099C113.129 25.3201 108.896 25.6023 105.384 27.5482Z" fill="#FFB978"/>
</svg>
