<svg width="65" height="47" viewBox="0 0 65 47" fill="none" xmlns="http://www.w3.org/2000/svg">
<path d="M5.34659 33.4263L5.34842 33.4001V33.3739C5.34842 27.6106 5.4751 24.0088 5.601 21.8057C5.66391 20.7047 5.72666 19.9524 5.77343 19.4536C5.79147 19.2611 5.80708 19.1069 5.81977 18.9814C5.82361 18.9435 5.82719 18.9082 5.83048 18.8753L5.83103 18.8698C5.84297 18.7504 5.85601 18.62 5.85601 18.527L5.85601 18.5265L5.85601 18.5208L5.85601 18.5206V18.5205C5.85582 18.3312 5.85241 14.8443 7.02236 11.0774C8.19704 7.29538 10.4898 3.41987 14.9601 2.11603C16.4815 1.67229 17.2924 1.46431 18.1378 1.34565C18.9708 1.22873 19.8501 1.19621 21.4875 1.13563L21.6164 1.13086H44.9316C46.4617 1.21351 48.9652 1.72813 51.4214 3.01239C53.8796 4.29764 56.2504 6.33114 57.5867 9.43342C58.5825 11.7451 59.1844 15.2478 59.5068 19.1586C59.8276 23.0488 59.8666 27.2663 59.7743 30.9612C59.7178 33.2242 59.574 35.5623 59.0102 37.6519C58.4487 39.733 57.4869 41.5068 55.836 42.7121C53.2083 44.6307 48.7718 45.8211 40.5101 45.8211H19.3307C16.8214 45.7375 13.1147 44.9975 10.1471 43.0855C7.21727 41.1978 5.0136 38.1834 5.34659 33.4263Z" stroke="#FFB978" stroke-width="1.5"/>
<rect x="43.8094" y="22.8413" width="10.1517" height="10.4055" rx="5.07585" fill="#FFB978"/>
<rect x="11.3239" y="22.8413" width="10.1517" height="10.4055" rx="5.07585" fill="#FFB978"/>
<path d="M63.7147 29.2061C63.7731 28.9775 63.823 28.7558 63.859 28.5517C64.1389 26.9655 64.401 25.21 63.6957 23.7619C63.668 23.7051 63.6379 23.6518 63.6052 23.6027C63.5741 23.5561 63.5426 23.5086 63.5107 23.4603C62.8669 22.4856 61.7052 21.9778 60.5597 22.2069L60.4328 33.2468C61.9939 32.343 63.268 30.9538 63.7147 29.2061Z" fill="#FFB978" stroke="#FFB978"/>
<path d="M1.40765 29.1599C1.35618 28.9296 1.31306 28.7066 1.28324 28.5014C1.05154 26.9075 0.842793 25.1448 1.59165 23.7188C1.62101 23.6628 1.6527 23.6105 1.68689 23.5624C1.71936 23.5168 1.75234 23.4702 1.78563 23.4229C2.45868 22.4682 3.63531 21.9958 4.77331 22.2595L4.56558 33.2982C3.03254 32.3475 1.80117 30.9204 1.40765 29.1599Z" fill="#FFB978" stroke="#FFB978"/>
<path d="M29.086 36.9502L29 37H36.2L35.8904 36.8346C33.7549 35.6938 31.1815 35.7376 29.086 36.9502Z" fill="#FFB978"/>
<path d="M55.4146 20.2947L55.141 20.2132C51.6944 19.1857 47.9939 19.4264 44.7095 20.8918C44.4295 21.0168 44.1005 20.9401 43.9046 20.7042L43.7084 20.468C43.4562 20.1643 43.5734 19.7029 43.94 19.5564C47.6691 18.0667 51.9019 18.3488 55.4146 20.2947Z" fill="#FFB978"/>
<path d="M10.3837 20.5482L10.6574 20.4666C14.1039 19.4391 17.8045 19.6798 21.0888 21.1453C21.3689 21.2702 21.6979 21.1935 21.8938 20.9576L22.09 20.7214C22.3422 20.4177 22.225 19.9563 21.8584 19.8099C18.1293 18.3201 13.8964 18.6023 10.3837 20.5482Z" fill="#FFB978"/>
</svg>
